P3
12 12
255
18
72
100
20
74
102
20
74
102
19
75
102
20
76
103
20
76
103
22
78
105
20
76
103
21
78
104
19
74
104
22
77
107
21
76
106
20
75
105
21
76
106
21
76
106
20
75
105
21
76
107
22
77
108
21
78
106
21
78
105
20
77
104
21
78
105
20
77
104
21
78
105
22
79
106
21
81
107
21
81
107
21
81
107
22
82
108
24
84
110
20
80
106
22
82
108
22
83
109
22
83
111
23
84
112
20
81
109
22
81
109
24
84
112
23
83
111
22
83
111
23
84
112
24
85
113
25
86
114
24
85
113
22
83
111
25
86
114
25
86
114
27
88
116
24
85
113
24
85
113
25
86
114
21
85
112
24
88
115
22
86
113
24
86
110
26
87
115
25
86
114
26
87
115
27
88
116
26
87
115
29
90
118
27
88
116
27
88
117
27
92
119
25
89
116
26
90
117
25
89
116
27
91
118
27
91
118
25
89
116
28
92
119
24
88
115
24
88
115
27
91
118
23
87
114
27
91
118
23
88
115
23
89
115
23
89
115
24
90
116
24
90
116
27
90
117
23
87
114
28
92
119
25
89
116
25
89
116
27
91
118
26
90
117
26
90
117
27
90
118
25
91
117
24
90
116
25
91
117
25
91
117
25
91
117
25
90
117
24
89
117
25
90
118
25
90
118
24
90
116
25
91
117
23
89
115
25
91
117
23
89
115
23
89
115
22
88
114
25
91
117
24
90
116
23
90
116
22
89
115
22
89
115
23
90
116
24
91
117
24
91
117
24
91
117
23
90
116
23
90
116
23
90
117
23
90
117
24
91
118
27
94
121
25
92
119
23
90
117
26
93
120
23
90
117
22
89
116
23
90
117
24
91
118
25
92
119
25
92
119
25
92
119
26
93
120
26
93
120
24
91
118
24
91
118
28
95
120
23
90
116
28
95
121
27
94
120
26
93
119
26
93
119
26
93
119
28
95
121
25
92
118
